<svg width="229" height="60" viewBox="0 0 229 60" fill="none" xmlns="http://www.w3.org/2000/svg">
<g clip-path="url(#clip0_163_424)">
<path d="M21.7207 37.6069H30.457L34.3761 23.165H58.6522L60.9877 14.4319H36.8513L38.2951 8.85944H64.5674L66.8995 0.182976H31.9109L21.7207 37.6069Z" fill="black"/>
<path d="M30.5967 37.7898H21.4844L31.771 0H67.1356L64.7037 9.04242H38.4347L37.0874 14.2456H61.2271L58.7918 23.3446H34.5157L30.5967 37.7898ZM21.9601 37.4239H30.3139L34.2329 22.982H58.509L60.748 14.6149H36.6116L38.152 8.67979H64.4242L66.6565 0.369282H32.0505L21.9601 37.4239Z" fill="black"/>
<path d="M61.8789 37.6069H96.7744L99.1098 28.8739H72.9141L74.4545 23.1849H98.7406L101.046 14.5151H76.8498L78.3269 8.85944H104.612L106.951 0.189629L71.9926 0.182976L61.8789 37.6069Z" fill="black"/>
<path d="M61.8802 37.7898H61.6406L71.8541 0L107.192 0.00665373L104.757 9.04242H78.4712L77.0906 14.3321H101.287L98.8849 23.3679H74.5954L73.1582 28.6909H99.354L96.9187 37.7898H61.8802ZM72.1336 0.365955L62.1164 37.4239H96.6326L98.8716 29.0568H72.6758L74.3126 23.0019H98.6021L100.811 14.6981H76.6148L78.1851 8.67646H104.474L106.713 0.372609L72.1336 0.365955Z" fill="black"/>
<path d="M102.541 37.6069H111.234L118.024 12.3427L133.684 37.6069H142.38L152.447 0.182976H143.741L137.037 25.2975L121.315 0.182976H112.665L102.541 37.6069Z" fill="black"/>
<path d="M142.519 37.7898H133.58L118.09 12.7984L111.376 37.7898H102.301L102.364 37.5603L112.524 0H121.417L121.47 0.0864985L136.97 24.845L143.597 0H152.683L152.62 0.229554L142.519 37.7898ZM133.786 37.4239H142.24L152.207 0.365955H143.88L137.106 25.7499L121.211 0.365955H112.804L102.777 37.4239H111.094L117.954 11.8869L133.786 37.4239Z" fill="black"/>
<path d="M158.12 0.182976H166.81L156.706 37.6069H147.986L158.12 0.182976Z" fill="black"/>
<path d="M156.845 37.7898H147.746L157.98 0H167.049L166.985 0.229554L156.845 37.7898ZM148.222 37.4239H156.562L166.569 0.365955H158.259L148.222 37.4239Z" fill="black"/>
<path d="M171.698 0.182976H183.04L203.803 37.6069H192.591L185.738 25.5204L172.467 37.6069H161.152L181.972 18.6837L171.698 0.182976Z" fill="black"/>
<path d="M204.117 37.7898H192.486L185.693 25.8098L172.539 37.7898H160.682L181.744 18.6471L171.387 0H183.148L183.201 0.0931522L204.117 37.7898ZM192.699 37.4239H203.495L182.935 0.365955H172.01L182.203 18.7203L182.097 18.8167L161.63 37.4206H172.399L185.789 25.2276L192.699 37.4239Z" fill="black"/>
<path d="M190.898 10.443L194.734 17.2465L213.504 0.182976H202.2L190.898 10.443Z" fill="black"/>
<path d="M194.689 17.5359L190.67 10.4064L202.131 0H213.978L194.689 17.5359ZM191.132 10.4796L194.782 16.957L213.03 0.365955H202.274L191.132 10.4796Z" fill="black"/>
<path d="M0 52.8605H1.54034C1.77987 52.8605 2.00943 52.8838 2.22567 52.9304C2.44525 52.977 2.6382 53.0568 2.80455 53.1666C2.97422 53.2764 3.10729 53.4228 3.2071 53.6058C3.3069 53.7887 3.35681 54.015 3.35681 54.2844C3.35681 54.5672 3.30358 54.8034 3.19379 54.9897C3.08733 55.176 2.9476 55.3224 2.77793 55.4289C2.60826 55.5353 2.42528 55.6119 2.22235 55.6551C2.02273 55.6984 1.82978 55.7217 1.65012 55.7217H0.61547V58.0571H0V52.8605ZM0.61547 55.1528H1.65678C1.96618 55.1528 2.21569 55.0829 2.40865 54.9432C2.60161 54.8034 2.69809 54.5872 2.69809 54.2944C2.69809 54.0017 2.60161 53.7821 2.40865 53.6457C2.21569 53.506 1.96285 53.4361 1.65678 53.4361H0.61547V55.1528Z" fill="black"/>
<path d="M5.8457 52.8605H6.46117V55.0629H9.23911V52.8605H9.85458V58.0604H9.23911V55.6385H6.46117V58.0604H5.8457V52.8605Z" fill="black"/>
<path d="M13.864 55.8215L11.9277 52.8605H12.7129L14.1734 55.2126L15.6771 52.8605H16.419L14.4828 55.8215V58.0604H13.864V55.8215Z" fill="black"/>
<path d="M20.9556 53.7788C20.8524 53.6124 20.716 53.4927 20.5431 53.4161C20.3701 53.3396 20.1937 53.303 20.0074 53.303C19.871 53.303 19.7346 53.3197 19.6015 53.3529C19.4685 53.3862 19.352 53.4394 19.2456 53.506C19.1391 53.5758 19.0559 53.6656 18.9927 53.7788C18.9295 53.8919 18.8963 54.025 18.8963 54.1747C18.8963 54.2911 18.9162 54.3976 18.9495 54.4874C18.9861 54.5772 19.046 54.6604 19.1291 54.7336C19.2123 54.8068 19.3254 54.8766 19.4651 54.9398C19.6082 55.0031 19.7812 55.0663 19.9875 55.1295C20.1871 55.1927 20.3834 55.2625 20.573 55.3357C20.7626 55.4089 20.929 55.5021 21.072 55.6152C21.2151 55.7283 21.3315 55.868 21.418 56.0377C21.5045 56.2074 21.5478 56.417 21.5478 56.6731C21.5478 56.9326 21.4979 57.1589 21.3947 57.3485C21.2916 57.5381 21.1552 57.6978 20.9855 57.8209C20.8159 57.9473 20.6229 58.0372 20.4033 58.1004C20.1837 58.1602 19.9542 58.1935 19.7213 58.1935C19.5683 58.1935 19.4186 58.1802 19.2655 58.1536C19.1125 58.127 18.9694 58.0837 18.8297 58.0272C18.69 57.9706 18.5602 57.8974 18.4371 57.8076C18.3141 57.7178 18.2109 57.6047 18.1211 57.4749L18.6501 57.0424C18.7632 57.2321 18.9195 57.3784 19.1192 57.4749C19.3188 57.5714 19.5317 57.6213 19.7579 57.6213C19.891 57.6213 20.0241 57.6013 20.1571 57.5614C20.2902 57.5215 20.4133 57.4649 20.5198 57.3884C20.6262 57.3119 20.716 57.2187 20.7826 57.1056C20.8524 56.9925 20.8857 56.8628 20.8857 56.7164C20.8857 56.5534 20.8591 56.4236 20.8059 56.3238C20.7526 56.224 20.6695 56.1375 20.5564 56.0643C20.4432 55.9911 20.3035 55.9246 20.1305 55.8647C19.9575 55.8048 19.7579 55.7383 19.5284 55.6584C19.3421 55.5986 19.1724 55.532 19.016 55.4555C18.8597 55.379 18.7233 55.2858 18.6101 55.1761C18.4937 55.0663 18.4039 54.9332 18.3373 54.7802C18.2708 54.6271 18.2375 54.4408 18.2375 54.2246C18.2375 53.9751 18.2874 53.7588 18.3839 53.5725C18.4804 53.3862 18.6135 53.2298 18.7798 53.1067C18.9462 52.9803 19.1358 52.8872 19.3454 52.824C19.555 52.7607 19.7779 52.7275 20.0074 52.7275C20.3002 52.7275 20.5697 52.7741 20.8125 52.8639C21.0554 52.9537 21.2716 53.1134 21.4613 53.3363L20.9556 53.7788Z" fill="black"/>
<path d="M24.678 52.8605H24.0625V58.0604H24.678V52.8605Z" fill="black"/>
<path d="M31.1058 53.9318C30.9495 53.7222 30.7565 53.5625 30.5269 53.4594C30.2974 53.3529 30.0579 53.303 29.8083 53.303C29.5189 53.303 29.2528 53.3629 29.0132 53.4793C28.7704 53.5958 28.5608 53.7555 28.3844 53.9518C28.2081 54.148 28.0717 54.3809 27.9719 54.6437C27.8754 54.9066 27.8255 55.1794 27.8255 55.4622C27.8255 55.7649 27.8754 56.0477 27.9719 56.3105C28.0684 56.5733 28.2048 56.7996 28.3778 56.9925C28.5508 57.1855 28.7604 57.3385 29.0032 57.4516C29.2461 57.5647 29.5122 57.6213 29.8083 57.6213C30.1277 57.6213 30.4105 57.5581 30.66 57.435C30.9095 57.3086 31.1258 57.1289 31.3121 56.896L31.7745 57.2853C31.5383 57.598 31.2555 57.8276 30.9262 57.9773C30.5968 58.1237 30.2209 58.1968 29.805 58.1968C29.4324 58.1968 29.0864 58.127 28.7637 57.9906C28.441 57.8542 28.1615 57.6645 27.922 57.4217C27.6858 57.1788 27.4995 56.8927 27.3631 56.56C27.23 56.2273 27.1602 55.8614 27.1602 55.4655C27.1602 55.0829 27.2267 54.7269 27.3564 54.3942C27.4862 54.0615 27.6692 53.7721 27.902 53.5292C28.1383 53.2831 28.4144 53.0901 28.7404 52.9504C29.0631 52.8073 29.4191 52.7375 29.805 52.7375C30.1577 52.7375 30.497 52.8007 30.823 52.9271C31.1491 53.0535 31.4219 53.2631 31.6414 53.5525L31.1058 53.9318Z" fill="black"/>
<path d="M35.8137 52.8605H36.3926L38.6016 58.0604H37.883L37.354 56.7829H34.7558L34.2201 58.0604H33.5215L35.8137 52.8605ZM36.0931 53.6557H36.0798L35.0019 56.2107H37.1245L36.0931 53.6557Z" fill="black"/>
<path d="M40.7832 52.8605H41.3987V57.4882H43.7807V58.0604H40.7832V52.8605Z" fill="black"/>
<path d="M52.9676 53.4328H51.2476V58.0604H50.6321V53.4328H48.9121V52.8605H52.9676V53.4328Z" fill="black"/>
<path d="M55.1855 52.8605H55.801V55.0629H58.5756V52.8605H59.1944V58.0604H58.5756V55.6385H55.801V58.0604H55.1855V52.8605Z" fill="black"/>
<path d="M61.9766 52.8605H65.2469V53.4328H62.5954V55.0629H65.0705V55.6385H62.5954V57.4882H65.3766V58.0604H61.9766V52.8605Z" fill="black"/>
<path d="M67.8223 52.8605H69.1497C69.3992 52.8605 69.6487 52.8739 69.8949 52.9038C70.1411 52.9337 70.364 52.997 70.5603 53.0934C70.7566 53.1899 70.9163 53.333 71.036 53.5226C71.1591 53.7122 71.219 53.9684 71.219 54.2911C71.219 54.6737 71.1026 54.9798 70.873 55.216C70.6434 55.4522 70.3241 55.6019 69.9182 55.6651L71.3953 58.0604H70.6401L69.2295 55.725H68.4377V58.0604H67.8223V52.8605ZM68.4411 55.1528H68.99C69.163 55.1528 69.3393 55.1494 69.5223 55.1395C69.7053 55.1295 69.8749 55.0995 70.028 55.043C70.181 54.9897 70.3108 54.9032 70.4106 54.7901C70.5104 54.6737 70.5603 54.5107 70.5603 54.2944C70.5603 54.1081 70.5237 53.9584 70.4505 53.8453C70.3773 53.7322 70.2808 53.6457 70.1611 53.5858C70.0413 53.5259 69.9049 53.486 69.7585 53.466C69.6088 53.4461 69.4591 53.4361 69.306 53.4361H68.4411V55.1528Z" fill="black"/>
<path d="M75.4895 52.8605H76.0683L78.2774 58.0604H77.5588L77.0298 56.7829H74.4315L73.8959 58.0604H73.1973L75.4895 52.8605ZM75.7656 53.6557H75.7523L74.6744 56.2107H76.7969L75.7656 53.6557Z" fill="black"/>
<path d="M80.4604 52.8605H82.0007C82.2402 52.8605 82.4698 52.8838 82.686 52.9304C82.9056 52.977 83.0986 53.0568 83.2649 53.1666C83.4312 53.2764 83.5677 53.4228 83.6675 53.6058C83.7673 53.7887 83.8172 54.015 83.8172 54.2844C83.8172 54.5672 83.7639 54.8034 83.6575 54.9897C83.551 55.176 83.4113 55.3224 83.2416 55.4289C83.072 55.5353 82.889 55.6119 82.686 55.6551C82.4864 55.6984 82.2935 55.7217 82.1138 55.7217H81.0725V58.0571H80.457V52.8605H80.4604ZM81.0758 55.1528H82.1171C82.4265 55.1528 82.676 55.0829 82.869 54.9432C83.062 54.8034 83.1584 54.5872 83.1584 54.2944C83.1584 54.0017 83.062 53.7821 82.869 53.6457C82.676 53.506 82.4265 53.4361 82.1171 53.4361H81.0758V55.1528Z" fill="black"/>
<path d="M87.53 55.8215L85.5938 52.8605H86.3789L87.8394 55.2126L89.3465 52.8605H90.0883L88.1488 55.8215V58.0604H87.53V55.8215Z" fill="black"/>
<path d="M101.742 52.8605H102.66L104.424 56.936H104.44L106.217 52.8605H107.112V58.0604H106.496V53.6989H106.48L104.617 58.0604H104.241L102.374 53.6989H102.361V58.0604H101.742V52.8605Z" fill="black"/>
<path d="M109.896 52.8605H113.163V53.4328H110.512V55.0629H112.987V55.6385H110.512V57.4882H113.297V58.0604H109.896V52.8605Z" fill="black"/>
<path d="M115.645 52.8605H117.641C117.814 52.8605 117.993 52.8805 118.183 52.9204C118.373 52.9604 118.562 53.0236 118.752 53.1067C118.941 53.1932 119.121 53.303 119.294 53.4394C119.467 53.5758 119.62 53.7422 119.753 53.9351C119.886 54.1281 119.989 54.351 120.069 54.6038C120.146 54.8567 120.186 55.1395 120.186 55.4588C120.186 55.7782 120.146 56.061 120.069 56.3138C119.989 56.5667 119.886 56.7896 119.753 56.9825C119.62 57.1755 119.467 57.3418 119.294 57.4782C119.121 57.6146 118.938 57.7278 118.752 57.8143C118.562 57.9007 118.373 57.9606 118.183 58.0006C117.993 58.0405 117.81 58.0604 117.641 58.0604H115.645V52.8605ZM116.26 57.4882H117.434C117.734 57.4882 118.01 57.4483 118.263 57.3718C118.516 57.2953 118.739 57.1722 118.925 57.0092C119.111 56.8461 119.258 56.6365 119.364 56.3804C119.47 56.1275 119.527 55.8215 119.527 55.4622C119.527 55.1062 119.474 54.8001 119.364 54.5439C119.258 54.2911 119.111 54.0815 118.925 53.9152C118.739 53.7521 118.519 53.6291 118.263 53.5525C118.01 53.4727 117.73 53.4361 117.434 53.4361H116.26V57.4882Z" fill="black"/>
<path d="M123.287 52.8605H122.672V58.0604H123.287V52.8605Z" fill="black"/>
<path d="M129.715 53.9318C129.559 53.7222 129.366 53.5625 129.136 53.4594C128.907 53.3529 128.667 53.303 128.418 53.303C128.128 53.303 127.862 53.3629 127.623 53.4793C127.38 53.5958 127.17 53.7555 126.994 53.9518C126.817 54.148 126.681 54.3809 126.581 54.6437C126.485 54.9066 126.435 55.1794 126.435 55.4622C126.435 55.7649 126.485 56.0477 126.581 56.3105C126.678 56.5733 126.814 56.7996 126.99 56.9925C127.163 57.1855 127.373 57.3385 127.616 57.4516C127.859 57.5647 128.125 57.6213 128.421 57.6213C128.74 57.6213 129.023 57.5581 129.273 57.435C129.522 57.3086 129.738 57.1289 129.925 56.896L130.387 57.2853C130.151 57.598 129.868 57.8276 129.539 57.9773C129.21 58.1237 128.834 58.1968 128.418 58.1968C128.045 58.1968 127.699 58.127 127.373 57.9906C127.05 57.8542 126.771 57.6645 126.531 57.4217C126.295 57.1788 126.109 56.8927 125.972 56.56C125.839 56.2273 125.77 55.8614 125.77 55.4655C125.77 55.0829 125.836 54.7269 125.966 54.3942C126.096 54.0615 126.279 53.7721 126.511 53.5292C126.748 53.2831 127.027 53.0901 127.35 52.9504C127.672 52.8073 128.028 52.7375 128.414 52.7375C128.767 52.7375 129.106 52.8007 129.432 52.9271C129.758 53.0535 130.031 53.2631 130.251 53.5525L129.715 53.9318Z" fill="black"/>
<path d="M134.421 52.8605H135L137.209 58.0604H136.49L135.961 56.7829H133.363L132.828 58.0604H132.129L134.421 52.8605ZM134.701 53.6557H134.687L133.609 56.2107H135.732L134.701 53.6557Z" fill="black"/>
<path d="M139.393 52.8605H140.008V57.4882H142.39V58.0604H139.393V52.8605Z" fill="black"/>
<path d="M153.471 52.8605H154.386L156.149 56.936H156.165L157.942 52.8605H158.837V58.0604H158.221V53.6989H158.205L156.342 58.0604H155.966L154.099 53.6989H154.086V58.0604H153.471V52.8605Z" fill="black"/>
<path d="M161.623 52.8605H164.89V53.4328H162.239V55.0629H164.714V55.6385H162.239V57.4882H165.023V58.0604H161.623V52.8605Z" fill="black"/>
<path d="M167.467 52.8605H168.245L171.256 57.1788H171.269V52.8605H171.885V58.0604H171.11L168.096 53.7422H168.082V58.0604H167.467V52.8605Z" fill="black"/>
<path d="M178.158 53.4328H176.441V58.0604H175.825V53.4328H174.105V52.8605H178.158V53.4328Z" fill="black"/>
<path d="M181.39 52.8605H181.969L184.178 58.0604H183.459L182.93 56.7829H180.332L179.796 58.0604H179.098L181.39 52.8605ZM181.669 53.6557H181.656L180.578 56.2107H182.701L181.669 53.6557Z" fill="black"/>
<path d="M186.361 52.8605H186.977V57.4882H189.359V58.0604H186.361V52.8605Z" fill="black"/>
<path d="M195.055 52.8605H195.673V55.0629H198.448V52.8605H199.067V58.0604H198.448V55.6385H195.673V58.0604H195.055V52.8605Z" fill="black"/>
<path d="M201.848 52.8605H205.115V53.4328H202.463V55.0629H204.938V55.6385H202.463V57.4882H205.248V58.0604H201.848V52.8605Z" fill="black"/>
<path d="M209.382 52.8605H209.961L212.17 58.0604H211.451L210.922 56.7829H208.324L207.788 58.0604H207.09L209.382 52.8605ZM209.662 53.6557H209.648L208.57 56.2107H210.693L209.662 53.6557Z" fill="black"/>
<path d="M214.354 52.8605H214.969V57.4882H217.351V58.0604H214.354V52.8605Z" fill="black"/>
<path d="M222.328 53.4328H220.611V58.0604H219.992V53.4328H218.275V52.8605H222.328V53.4328Z" fill="black"/>
<path d="M224.547 52.8605H225.162V55.0629H227.94V52.8605H228.556V58.0604H227.94V55.6385H225.162V58.0604H224.547V52.8605Z" fill="black"/>
<path d="M95.7207 50.8478V59.9268" stroke="black" stroke-width="1.5" stroke-miterlimit="10"/>
<path d="M147.93 50.921V60" stroke="black" stroke-width="1.5" stroke-miterlimit="10"/>
</g>
<defs>
<clipPath id="clip0_163_424">
<rect width="228.556" height="60" fill="white"/>
</clipPath>
</defs>
</svg>
